<svg width="14" height="14" viewBox="0 0 14 14" fill="none" xmlns="http://www.w3.org/2000/svg">
<path d="M7 14C5.04259 14 3.38657 13.6986 2.03194 13.0958C0.677315 12.4931 0 11.7574 0 10.8889V3.11111C0 2.25556 0.683796 1.52315 2.05139 0.913889C3.41898 0.30463 5.06852 0 7 0C8.93148 0 10.581 0.30463 11.9486 0.913889C13.3162 1.52315 14 2.25556 14 3.11111V10.8889C14 11.7574 13.3227 12.4931 11.9681 13.0958C10.6134 13.6986 8.95741 14 7 14ZM7 4.68611C8.1537 4.68611 9.31389 4.52083 10.4806 4.19028C11.6472 3.85972 12.3019 3.50648 12.4444 3.13056C12.3019 2.75463 11.6505 2.39815 10.4903 2.06111C9.33009 1.72407 8.16667 1.55556 7 1.55556C5.82037 1.55556 4.66343 1.72083 3.52917 2.05139C2.39491 2.38194 1.73704 2.74167 1.55556 3.13056C1.73704 3.51944 2.39491 3.87593 3.52917 4.2C4.66343 4.52407 5.82037 4.68611 7 4.68611ZM7 8.55556C7.54444 8.55556 8.06944 8.52963 8.575 8.47778C9.08056 8.42593 9.56343 8.35139 10.0236 8.25417C10.4838 8.15694 10.9181 8.03704 11.3264 7.89444C11.7347 7.75185 12.1074 7.58982 12.4444 7.40833V5.075C12.1074 5.25648 11.7347 5.41852 11.3264 5.56111C10.9181 5.7037 10.4838 5.82361 10.0236 5.92083C9.56343 6.01806 9.08056 6.09259 8.575 6.14444C8.06944 6.1963 7.54444 6.22222 7 6.22222C6.45556 6.22222 5.92407 6.1963 5.40556 6.14444C4.88704 6.09259 4.39769 6.01806 3.9375 5.92083C3.47731 5.82361 3.0463 5.7037 2.64444 5.56111C2.24259 5.41852 1.87963 5.25648 1.55556 5.075V7.40833C1.87963 7.58982 2.24259 7.75185 2.64444 7.89444C3.0463 8.03704 3.47731 8.15694 3.9375 8.25417C4.39769 8.35139 4.88704 8.42593 5.40556 8.47778C5.92407 8.52963 6.45556 8.55556 7 8.55556ZM7 12.4444C7.5963 12.4444 8.20232 12.3991 8.81806 12.3083C9.4338 12.2176 10.0009 12.0977 10.5194 11.9486C11.038 11.7995 11.4722 11.631 11.8222 11.4431C12.1722 11.2551 12.3796 11.0639 12.4444 10.8694V8.96389C12.1074 9.14537 11.7347 9.30741 11.3264 9.45C10.9181 9.59259 10.4838 9.7125 10.0236 9.80972C9.56343 9.90695 9.08056 9.98148 8.575 10.0333C8.06944 10.0852 7.54444 10.1111 7 10.1111C6.45556 10.1111 5.92407 10.0852 5.40556 10.0333C4.88704 9.98148 4.39769 9.90695 3.9375 9.80972C3.47731 9.7125 3.0463 9.59259 2.64444 9.45C2.24259 9.30741 1.87963 9.14537 1.55556 8.96389V10.8889C1.62037 11.0833 1.82454 11.2713 2.16806 11.4528C2.51157 11.6343 2.94259 11.7995 3.46111 11.9486C3.97963 12.0977 4.55 12.2176 5.17222 12.3083C5.79444 12.3991 6.4037 12.4444 7 12.4444Z" fill="white"/>
</svg>
